<svg width="90" height="24" fill="none" xmlns="http://www.w3.org/2000/svg"><path d="M89.983 12.479v7.374a.585.585 0 01-.584.584H87.2a.585.585 0 01-.584-.584v-1.16a8.17 8.17 0 01-4.889 1.618c-4.569 0-8.273-3.75-8.273-8.374 0-4.625 3.704-8.374 8.273-8.374 1.829 0 3.519.6 4.889 1.617V4.147c0-.323.261-.585.584-.585H89.4c.323 0 .584.262.584.585V11.4a8.597 8.597 0 010 1.074v.005zm-22.462 7.203c0 .23-.187.417-.418.417h-2.59a.418.418 0 01-.418-.418V4.277c0-.23.187-.417.417-.417h2.591c.23 0 .418.187.418.417v.873a8.168 8.168 0 014.508-1.58c.187 0 .339.152.339.34v2.855a.274.274 0 01-.26.273c-2.556.137-4.587 2.278-4.587 4.9v7.745zM43.633 5.557a.297.297 0 01.026.424l-1.812 2.002a.465.465 0 01-.643.045 4.781 4.781 0 00-2.931-.998c-2.677 0-4.847 2.196-4.847 4.906 0 2.71 2.17 4.906 4.847 4.906.96 0 1.875-.282 2.655-.801l.004-.003a.449.449 0 01.604.098l1.614 2.075a.383.383 0 01-.078.546 8.175 8.175 0 01-4.799 1.553c-4.57 0-8.273-3.75-8.273-8.374 0-4.625 3.704-8.374 8.273-8.374 1.992 0 3.878.717 5.36 1.995zm9.682 14.753c-4.57 0-8.273-3.75-8.273-8.374 0-4.625 3.704-8.374 8.273-8.374 4.569 0 8.273 3.749 8.273 8.374 0 4.624-3.704 8.374-8.273 8.374zm0-3.468c2.677 0 4.847-2.197 4.847-4.906 0-2.71-2.17-4.906-4.847-4.906-2.677 0-4.847 2.196-4.847 4.906 0 2.71 2.17 4.906 4.847 4.906zm28.412 0c2.677 0 4.847-2.197 4.847-4.906 0-2.71-2.17-4.906-4.847-4.906-2.677 0-4.847 2.196-4.847 4.906 0 2.71 2.17 4.906 4.847 4.906z" fill="#202020"/><path d="M10.583.75a8.803 8.803 0 00-1.224.12c-1.589.274-3.121.889-4.455 1.803A11.395 11.395 0 00.548 8.48a11.387 11.387 0 00.58 8.432 11.401 11.401 0 005.855 5.498c2.13.876 4.515 1.07 6.747.568a11.363 11.363 0 006.739-4.514 11.362 11.362 0 002.03-5.78.648.648 0 00-.644-.686h-.117c-.787-.002-1.986-.005-2.71-.005a.645.645 0 00-.644.594 7.137 7.137 0 01-.189 1.14 7.246 7.246 0 01-3.05 4.26 7.214 7.214 0 01-5.221 1.026 7.216 7.216 0 01-4.457-2.832 7.207 7.207 0 01-1.362-4.213 7.237 7.237 0 012.243-5.191 7.21 7.21 0 014.33-1.93.647.647 0 00.592-.645v-.197l.002-2.61a.646.646 0 00-.205-.472.684.684 0 00-.484-.173zm11.903 3.63A3.606 3.606 0 0018.883.774a3.606 3.606 0 000 7.21 3.606 3.606 0 003.603-3.604z" fill="#FE3E6D"/></svg>