<?xml version="1.0" encoding="UTF-8"?>
<svg xmlns="http://www.w3.org/2000/svg" xmlns:xlink="http://www.w3.org/1999/xlink" width="149px" height="57px" viewBox="0 0 148 57" version="1.1">
<g id="surface1">
<path style=" stroke:none;fill-rule:nonzero;fill:rgb(95.294118%,43.921569%,12.941177%);fill-opacity:1;" d="M 76.417969 13.628906 C 76.417969 15.425781 78.144531 16.808594 80.351562 15.980469 L 92.152344 11.621094 L 92.152344 0 L 77.867188 11.207031 C 76.96875 11.898438 76.417969 12.589844 76.417969 13.628906 Z M 76.417969 13.628906 "/>
<path style=" stroke:none;fill-rule:nonzero;fill:rgb(95.294118%,43.921569%,12.941177%);fill-opacity:1;" d="M 76.417969 19.644531 L 84.011719 19.644531 L 84.011719 56.308594 L 76.417969 56.308594 Z M 76.417969 19.644531 "/>
<path style=" stroke:none;fill-rule:nonzero;fill:rgb(95.294118%,43.921569%,12.941177%);fill-opacity:1;" d="M 18.304688 18.953125 C 8.089844 18.953125 0.0859375 26.632812 0.0859375 37.699219 C 0.0859375 48.765625 8.160156 57 19.066406 57 C 25.828125 57 31.28125 53.75 34.871094 48.976562 L 29.558594 44.617188 C 26.933594 48.074219 23.34375 49.875 18.859375 49.875 C 12.921875 49.875 8.917969 46.484375 7.816406 41.019531 L 32.226562 41.019531 C 34.570312 41.019531 35.972656 39.914062 35.972656 37.214844 C 35.972656 28.777344 29.902344 18.953125 18.304688 18.953125 Z M 7.816406 34.101562 C 8.917969 29.121094 12.855469 26.078125 18.304688 26.078125 C 23.757812 26.078125 27.484375 29.121094 28.175781 34.101562 Z M 7.816406 34.101562 "/>
<path style=" stroke:none;fill-rule:nonzero;fill:rgb(95.294118%,43.921569%,12.941177%);fill-opacity:1;" d="M 58.613281 26.078125 C 61.511719 26.078125 63.996094 27.117188 65.859375 28.429688 L 70.691406 22.964844 C 67.167969 20.335938 63.375 18.953125 58.820312 18.953125 C 48.8125 18.953125 41.980469 25.59375 41.980469 35.277344 L 41.980469 56.308594 L 49.570312 56.308594 L 49.570312 42.195312 L 68.550781 42.195312 L 68.550781 35.277344 L 49.570312 35.277344 C 49.433594 29.539062 53.296875 26.078125 58.613281 26.078125 Z M 58.613281 26.078125 "/>
<path style=" stroke:none;fill-rule:nonzero;fill:rgb(95.294118%,43.921569%,12.941177%);fill-opacity:1;" d="M 142.285156 50.175781 L 147.871094 44.085938 L 145.296875 44.085938 L 140.6875 49.199219 C 140.109375 49.863281 140.066406 50.53125 140.6875 51.199219 L 145.386719 56.308594 L 147.914062 56.308594 L 142.28125 50.175781 Z M 142.285156 50.175781 "/>
<path style=" stroke:none;fill-rule:nonzero;fill:rgb(95.294118%,43.921569%,12.941177%);fill-opacity:1;" d="M 137.226562 44.085938 L 139.222656 44.085938 L 139.222656 56.308594 L 137.226562 56.308594 Z M 137.226562 44.085938 "/>
<path style=" stroke:none;fill-rule:nonzero;fill:rgb(95.294118%,43.921569%,12.941177%);fill-opacity:1;" d="M 114.128906 44.085938 C 113.375 44.085938 112.84375 44.488281 112.53125 45.199219 L 107.789062 56.308594 L 109.917969 56.308594 L 110.921875 53.863281 L 117.25 53.863281 L 118.25 56.308594 L 120.421875 56.308594 L 115.679688 45.199219 C 115.414062 44.574219 114.96875 44.085938 114.128906 44.085938 Z M 111.652344 52.085938 L 114.085938 46.15625 L 116.519531 52.085938 Z M 111.652344 52.085938 "/>
<path style=" stroke:none;fill-rule:nonzero;fill:rgb(95.294118%,43.921569%,12.941177%);fill-opacity:1;" d="M 104.289062 49.859375 C 105.15625 49.246094 105.707031 48.28125 105.707031 47.152344 C 105.707031 45.285156 104.242188 44.085938 102.027344 44.085938 L 95.953125 44.085938 L 95.953125 56.308594 L 101.980469 56.308594 C 104.683594 56.308594 106.191406 54.976562 106.191406 52.929688 C 106.191406 51.492188 105.394531 50.449219 104.289062 49.859375 Z M 101.757812 45.867188 C 102.867188 45.867188 103.621094 46.488281 103.621094 47.511719 C 103.621094 48.53125 102.910156 49.289062 101.9375 49.289062 L 97.945312 49.289062 L 97.945312 45.867188 Z M 101.804688 54.53125 L 97.945312 54.53125 L 97.945312 51.0625 L 102.203125 51.0625 C 103.3125 51.0625 104.0625 51.640625 104.0625 52.664062 C 104.0625 53.820312 103.132812 54.53125 101.804688 54.53125 Z M 101.804688 54.53125 "/>
<path style=" stroke:none;fill-rule:nonzero;fill:rgb(95.294118%,43.921569%,12.941177%);fill-opacity:1;" d="M 131.226562 53.210938 L 125.257812 44.933594 C 124.855469 44.402344 124.503906 44.085938 123.882812 44.085938 C 123.21875 44.085938 122.6875 44.664062 122.6875 45.421875 L 122.6875 56.308594 L 124.679688 56.308594 L 124.605469 47.183594 L 130.578125 55.464844 C 130.976562 56.042969 131.507812 56.308594 131.996094 56.308594 C 132.660156 56.308594 133.148438 55.730469 133.148438 54.976562 L 133.148438 44.085938 L 131.152344 44.085938 Z M 131.226562 53.210938 "/>
</g>
</svg>
